<svg width="27" height="4" viewBox="0 0 27 4" fill="none" xmlns="http://www.w3.org/2000/svg">
<path d="M1 2.50831C2.141 2.26381 3.08903 1.80332 4.28996 1.80332C5.58084 1.80332 6.9668 1.49829 8.23268 1.30721C11.7755 0.772451 15.3455 1.09833 18.912 1.09833C20.0256 1.09833 21.223 0.940902 22.2933 1.24194C22.8828 1.40773 23.6421 1.06798 24.1472 1.30721C24.4335 1.44286 24.7718 1.36703 25.0284 1.50957C25.2266 1.61966 25.7684 1.64507 25.1851 1.91429C24.6648 2.15441 24.0537 1.85643 23.5597 2.06442C23.2752 2.1842 22.9871 2.15581 22.6785 2.15581C22.4254 2.15581 23.0596 2.11212 23.2072 2.03831" stroke="#00ABE1" stroke-width="2" stroke-linecap="round" stroke-linejoin="round"/>
</svg>
